<svg width="640" height="640" viewBox="0 0 640 640" fill="none" xmlns="http://www.w3.org/2000/svg">
<path d="M479.368 58.804C504.115 55.252 504.116 55.26 504.117 55.269L504.12 55.288L504.126 55.331L504.14 55.436C504.151 55.515 504.164 55.61 504.179 55.722C504.209 55.946 504.246 56.236 504.288 56.589C504.373 57.295 504.48 58.255 504.593 59.443C504.819 61.816 505.07 65.12 505.214 69.148C505.5 77.158 505.372 88.283 503.68 100.795C500.375 125.232 490.582 158.512 462.244 182.127C434.783 205.01 397.191 212.481 370.004 215.035C355.855 216.363 343.244 216.465 334.162 216.24C329.604 216.127 325.888 215.931 323.258 215.757C322.049 215.677 321.066 215.602 320.333 215.542C319.6 215.602 318.618 215.677 317.408 215.757C314.778 215.931 311.063 216.127 306.504 216.24C297.423 216.465 284.811 216.363 270.662 215.035C243.475 212.481 205.883 205.011 178.423 182.128C150.084 158.513 140.291 125.232 136.986 100.795C135.295 88.283 135.166 77.158 135.452 69.148C135.596 65.12 135.847 61.816 136.073 59.443C136.186 58.255 136.293 57.295 136.378 56.589C136.421 56.236 136.458 55.946 136.487 55.722C136.502 55.61 136.515 55.515 136.526 55.436L136.541 55.331L136.547 55.288L136.549 55.269C136.551 55.26 136.552 55.252 161.298 58.804L320.333 86.613L479.368 58.804ZM479.368 58.804C481.848 33.927 481.842 33.927 481.835 33.926L481.821 33.924L481.786 33.921L481.693 33.912C481.658 33.909 481.619 33.905 481.575 33.901C481.528 33.896 481.476 33.892 481.419 33.886C481.196 33.866 480.896 33.839 480.521 33.808C479.772 33.745 478.724 33.664 477.408 33.577C474.778 33.403 471.063 33.206 466.504 33.093C457.423 32.868 444.811 32.97 430.662 34.299C403.475 36.852 365.883 44.323 338.423 67.206C331.279 73.16 325.313 79.727 320.333 86.613C315.353 79.727 309.388 73.16 302.244 67.206C274.783 44.323 237.191 36.852 210.004 34.299C195.855 32.97 183.244 32.868 174.162 33.093C169.604 33.206 165.888 33.403 163.258 33.577C161.942 33.664 160.894 33.745 160.145 33.808C159.77 33.839 159.47 33.866 159.248 33.886C159.137 33.897 159.045 33.905 158.973 33.912L158.881 33.921L158.846 33.924L158.831 33.926C158.825 33.927 158.818 33.927 161.298 58.804L320.333 86.613L479.368 58.804ZM479.368 58.804L504.115 55.252C502.481 43.868 493.291 35.068 481.848 33.927L479.368 58.804ZM161.298 58.804L136.552 55.252C138.186 43.868 147.375 35.068 158.818 33.927L161.298 58.804Z" fill="#FFF7D9"/>
<path d="M479.368 58.804C504.115 55.252 504.116 55.26 504.117 55.269L504.12 55.288L504.126 55.331L504.14 55.436C504.151 55.515 504.164 55.61 504.179 55.722C504.209 55.946 504.246 56.236 504.288 56.589C504.373 57.295 504.48 58.255 504.593 59.443C504.819 61.816 505.07 65.12 505.214 69.148C505.5 77.158 505.372 88.283 503.68 100.795C500.375 125.232 490.582 158.512 462.244 182.127C434.783 205.01 397.191 212.481 370.004 215.035C355.855 216.363 343.244 216.465 334.162 216.24C329.604 216.127 325.888 215.931 323.258 215.757C322.049 215.677 321.066 215.602 320.333 215.542C319.6 215.602 318.618 215.677 317.408 215.757C314.778 215.931 311.063 216.127 306.504 216.24C297.423 216.465 284.811 216.363 270.662 215.035C243.475 212.481 205.883 205.011 178.423 182.128C150.084 158.513 140.291 125.232 136.986 100.795C135.295 88.283 135.166 77.158 135.452 69.148C135.596 65.12 135.847 61.816 136.073 59.443C136.186 58.255 136.293 57.295 136.378 56.589C136.421 56.236 136.458 55.946 136.487 55.722C136.502 55.61 136.515 55.515 136.526 55.436L136.541 55.331L136.547 55.288L136.549 55.269C136.551 55.26 136.552 55.252 161.298 58.804M479.368 58.804C481.848 33.927 481.842 33.927 481.835 33.926L481.821 33.924L481.786 33.921L481.693 33.912C481.658 33.909 481.619 33.905 481.575 33.901C481.528 33.896 481.476 33.892 481.419 33.886C481.196 33.866 480.896 33.839 480.521 33.808C479.772 33.745 478.724 33.664 477.408 33.577C474.778 33.403 471.063 33.206 466.504 33.093C457.423 32.868 444.811 32.97 430.662 34.299C403.475 36.852 365.883 44.323 338.423 67.206C331.279 73.16 325.313 79.727 320.333 86.613M479.368 58.804L504.115 55.252C502.481 43.868 493.291 35.068 481.848 33.927L479.368 58.804ZM479.368 58.804L320.333 86.613M161.298 58.804C158.818 33.927 158.825 33.927 158.831 33.926L158.846 33.924L158.881 33.921L158.973 33.912C159.045 33.905 159.137 33.897 159.248 33.886C159.47 33.866 159.77 33.839 160.145 33.808C160.894 33.745 161.942 33.664 163.258 33.577C165.888 33.403 169.604 33.206 174.162 33.093C183.244 32.868 195.855 32.97 210.004 34.299C237.191 36.852 274.783 44.323 302.244 67.206C309.388 73.16 315.353 79.727 320.333 86.613M161.298 58.804L136.552 55.252C138.186 43.868 147.375 35.068 158.818 33.927L161.298 58.804ZM161.298 58.804L320.333 86.613M320.333 200.211V200.213V200.215" stroke="white" stroke-width="50" stroke-linecap="round" stroke-linejoin="round"/>
<path d="M319.368 190.53C319.368 190.53 237.366 198.704 194.427 162.922C151.489 127.14 161.298 58.804 161.298 58.804C161.298 58.804 243.3 50.63 286.239 86.412C329.177 122.194 319.368 190.53 319.368 190.53Z" fill="#4DFF74" stroke="#1B1C32" stroke-width="40" stroke-linecap="round" stroke-linejoin="round"/>
<path d="M321.298 190.53C321.298 190.53 403.3 198.704 446.239 162.922C489.177 127.14 479.368 58.804 479.368 58.804C479.368 58.804 397.366 50.63 354.427 86.412C311.489 122.194 321.298 190.53 321.298 190.53Z" fill="#4DFF74" stroke="#1B1C32" stroke-width="40" stroke-linecap="round" stroke-linejoin="round"/>
<path d="M83.922 345.705C79.197 382.935 82.453 417.297 102.134 446.555C121.544 475.409 154.017 494.913 197.807 509.348C229.166 519.685 253.418 541.452 262.028 569.429L277.528 564.659L262.028 569.43L267.955 588.688C270.435 596.745 276.81 603.011 284.909 605.351C293.009 607.692 301.742 605.792 308.138 600.299L310.678 598.117C310.68 598.116 310.681 598.115 310.682 598.114C325.959 584.999 343.239 574.418 361.866 566.774L413.107 545.747C459.1 526.874 498.206 502.034 524.397 468.813C551.195 434.823 563.197 393.62 557.115 345.705C549.137 282.842 497.345 236.334 427 236.334H213.666C143.208 236.334 91.888 282.952 83.922 345.705ZM108.722 348.853H108.723H108.722Z" stroke="white" stroke-width="50" stroke-linecap="round" stroke-linejoin="round"/>
<path d="M427 261.334H213.666C155.323 261.334 115.044 299.055 108.723 348.853C100.056 417.141 122.831 458.309 205.634 485.605C242.823 497.864 274.404 524.651 285.922 562.076L291.849 581.334L294.393 579.149C311.698 564.292 331.274 552.305 352.375 543.646L403.616 522.619C491.229 486.667 542.834 431.736 532.314 348.853C525.994 299.055 485.343 261.334 427 261.334Z" fill="#FFCA0A"/>
<path d="M398.5 447C468 403 451.667 358.167 444 335.5L503 311L528 316V417L450 503L298 574L265 536C278 490 352.804 475.93 398.5 447Z" fill="#CCA000"/>
<path fill-rule="evenodd" clip-rule="evenodd" d="M88.8821 346.335C96.5191 286.173 145.631 241.334 213.666 241.334H427C494.944 241.334 544.508 286.085 552.155 346.335C558.072 392.955 546.416 432.808 520.471 465.718C495.01 498.012 456.764 522.428 411.209 541.122L359.968 562.149C340.846 569.995 323.106 580.858 307.424 594.321C307.423 594.322 307.422 594.323 307.421 594.324L304.88 596.506C299.763 600.901 292.777 602.42 286.297 600.548C279.817 598.675 274.718 593.663 272.734 587.217L266.807 567.959L282.273 563.199L266.807 567.959C257.615 538.092 231.897 515.321 199.373 504.6L199.372 504.599C156.06 490.322 124.803 471.296 106.283 443.764C87.5451 415.91 84.2351 382.948 88.8821 346.335ZM302.208 548.025C286.553 507.472 251.165 479.555 211.896 466.61C172.405 453.592 150.873 438.386 139.472 421.438C128.288 404.812 124.544 383.046 128.564 351.371C133.569 311.937 165.015 281.334 213.666 281.334H427C475.742 281.334 507.48 312.025 512.473 351.371C517.076 387.634 508.189 416.688 489.059 440.953C469.444 465.833 438.081 486.858 396.023 504.116L403.616 522.619L396.023 504.116L344.782 525.143C329.815 531.285 315.549 538.958 302.208 548.025Z" fill="#1B1C32"/>
<path d="M507 301.334C493.666 328 423.426 341.334 320.333 341.334C217.24 341.334 147 328 133.666 301.334" stroke="#1B1C32" stroke-width="40" stroke-linejoin="round"/>
</svg>
