<svg width="24" height="24" viewBox="0 0 24 24" fill="none" xmlns="http://www.w3.org/2000/svg">
<path d="M9 17H16V6C16 4.89543 15.1046 4 14 4H4C2.89543 4 2 4.89543 2 6V16C2 16.5523 2.44772 17 3 17H4" stroke="black" stroke-width="2" stroke-linecap="round" stroke-linejoin="round"/>
<path d="M22 16V12C22 9.79086 20.2091 8 18 8H16V17H21C21.5523 17 22 16.5523 22 16Z" stroke="black" stroke-width="2" stroke-linecap="round" stroke-linejoin="round"/>
<path d="M16 18C16 19.1046 16.8954 20 18 20C19.1046 20 20 19.1046 20 18V17H16V18Z" stroke="black" stroke-width="2" stroke-linecap="round" stroke-linejoin="round"/>
<path d="M22 14L20 14" stroke="black" stroke-width="2" stroke-linecap="round" stroke-linejoin="round"/>
<circle cx="6.5" cy="17.5" r="2.5" stroke="black" stroke-width="2" stroke-linecap="round" stroke-linejoin="round"/>
</svg>
